mtllib materials.mtl
v -0.497 -0.4829999 0.00999999
v -0.497 -0.4629999 0.00999999
v 0.4929999 -0.4629999 0.00999999
v 0.4929999 -0.4829999 0.00999999
v -0.497 -0.4829999 -0.00999999
v 0.4929999 -0.4829999 -0.00999999
v 0.4929999 -0.4629999 -0.00999999
v -0.497 -0.4629999 -0.00999999
v 0.4929999 -0.4829999 0.00999999
v 0.4929999 0.467 0.00999999
v 0.5129999 0.467 0.00999999
v 0.5129999 -0.4829999 0.00999999
v 0.4929999 -0.4829999 -0.00999999
v 0.5129999 -0.4829999 -0.00999999
v 0.5129999 0.467 -0.00999999
v 0.4929999 0.467 -0.00999999
v -0.4969999 0.467 0.00999999
v -0.4969999 0.487 0.00999999
v 0.5130001 0.487 0.00999999
v 0.5130001 0.467 0.00999999
v -0.4969999 0.467 -0.00999999
v 0.5130001 0.467 -0.00999999
v 0.5130001 0.487 -0.00999999
v -0.4969999 0.487 -0.00999999
v -0.497 -0.4829999 -0.00999999
v -0.497 0.487 -0.00999999
v -0.5170001 0.487 -0.00999999
v -0.5170001 -0.4829999 -0.00999999
v -0.4970001 -0.4829999 0.00999999
v -0.5170001 -0.4829999 0.00999999
v -0.5170001 0.487 0.00999999
v -0.4970001 0.487 0.00999999
v 0.493 -0.4629999 0.01000023
v 0.493 0.4670002 0.01000011
v 0.493 0.4670002 -0.009999871
v 0.493 -0.4629999 -0.009999752
v -0.497 -0.4629999 0.01000011
v -0.497 -0.4629999 -0.009999871
v -0.497 0.4670002 -0.00999999
v -0.497 0.4670002 0.00999999
vn 1.963774E-10 0 1
vn -1.963774E-10 0 -1
vn -1 -6.575137E-07 0
vn 1 6.575137E-07 0
vn 0 -1 1.328311E-08
vn 0 1 -1.328311E-08
vn -2.370461E-07 0 1
vn 2.370461E-07 0 -1
vn -1 2.046459E-10 -2.384186E-07
vn 1 -2.046459E-10 2.384186E-07
vn 1.554312E-14 -1 -6.519257E-08
vn -1.554312E-14 1 6.519257E-08
vn 1.924887E-10 0 1
vn -1.924887E-10 0 -1
vn -1 -1.806766E-07 0
vn 1 1.806766E-07 0
vn 0 -1 3.577754E-09
vn 0 1 -3.577754E-09
vn 2.44525E-07 0 -1
vn -2.44525E-07 0 1
vn 1 2.004264E-10 2.384186E-07
vn -1 -2.004264E-10 -2.384186E-07
vn 7.061019E-14 -1 -2.961606E-07
vn -7.061019E-14 1 2.961606E-07
vn 1 2.078147E-14 3.491731E-07
vn -1 -2.078147E-14 -3.491731E-07
vn -1.748456E-07 1.189236E-07 1
vn 1.748456E-07 -1.189236E-07 -1
vn -8.617086E-09 -1 1.192093E-07
vn 8.617086E-09 1 -1.192093E-07
vt 0.1283503 0.04405054
vt 0.1301391 0.04494497
vt 0.08586501 0.1334933
vt 0.08407615 0.1325988
vt -0.1283503 0.04405054
vt -0.08407615 0.1325988
vt -0.08586501 0.1334933
vt -0.1301391 0.04494497
vt 0.03778036 0.1922736
vt 0.03940782 0.1934361
vt 0.03824535 0.1950636
vt 0.03661788 0.1939011
vt -0.0377804 0.1922736
vt -0.03661792 0.193901
vt -0.03824539 0.1950635
vt -0.03940786 0.1934361
vt -0.1402523 0.03097659
vt -0.106955 0.124209
vt -0.1088385 0.1248817
vt -0.1421358 0.03164926
vt 0.1402523 0.03097659
vt 0.1421358 0.03164926
vt 0.1088385 0.1248817
vt 0.106955 0.124209
vt 0.08407616 0.1325988
vt 0.1690467 0.1750841
vt 0.1681523 0.1768729
vt 0.08318173 0.1343876
vt -0.08407616 0.1325988
vt -0.08318173 0.1343876
vt -0.1681523 0.1768729
vt -0.1690467 0.1750841
vt 0.03778044 0.1922736
vt 0.0394079 0.1934361
vt -0.01580974 0.2707407
vt -0.01743721 0.2695783
vt -0.03778044 0.1922736
vt 0.01743721 0.2695783
vt 0.01580974 0.2707407
vt -0.03940791 0.1934361
vt -0.106955 0.124209
vt -0.1062823 0.1260925
vt -0.1081658 0.1267652
vt -0.1088385 0.1248817
vt 0.106955 0.124209
vt 0.1088385 0.1248817
vt 0.1081658 0.1267652
vt 0.1062823 0.1260925
vt 0.2133209 0.08653584
vt 0.2151097 0.08743027
vt 0.1699412 0.1777674
vt 0.1681523 0.176873
vt -0.2133209 0.08653584
vt -0.1681523 0.176873
vt -0.1699412 0.1777674
vt -0.2151097 0.08743027
vt -0.01743719 0.2695783
vt -0.01580972 0.2707407
vt -0.0169722 0.2723682
vt -0.01859966 0.2712057
vt 0.01743718 0.2695783
vt 0.01859965 0.2712057
vt 0.01697219 0.2723682
vt 0.01580971 0.2707407
vt -0.1402523 0.0309766
vt -0.1062823 0.1260925
vt -0.1081658 0.1267652
vt -0.1421358 0.03164927
vt 0.1402523 0.0309766
vt 0.1421358 0.03164927
vt 0.1081658 0.1267652
vt 0.1062823 0.1260925
vt -0.1283503 0.04405051
vt -0.2151097 0.08743022
vt -0.2160042 0.08564137
vt -0.1292447 0.04226165
vt 0.1283503 0.04405051
vt 0.1292447 0.04226165
vt 0.2160042 0.08564137
vt 0.2151097 0.08743022
vt -0.03940789 0.1934361
vt -0.03778042 0.1922736
vt 0.0185997 0.2712057
vt 0.01697224 0.2723682
vt 0.03940789 0.1934361
vt -0.01697224 0.2723682
vt -0.0185997 0.2712057
vt 0.03778042 0.1922736
vt -0.1421358 0.03164929
vt -0.1428085 0.02976581
vt -0.140925 0.02909313
vt -0.1402523 0.03097661
vt 0.1421358 0.0316493
vt 0.1402524 0.03097663
vt 0.140925 0.02909314
vt 0.1428085 0.02976581
vt -0.03661793 0.1939011
vt 0.01743727 0.2695783
vt 0.0158098 0.2707408
vt -0.03824539 0.1950636
vt 0.03661791 0.1939011
vt 0.03824537 0.1950636
vt -0.01580982 0.2707408
vt -0.01743728 0.2695783
vt 0.08586502 0.1334933
vt 0.1301392 0.04494496
vt 0.2133209 0.08653584
vt 0.1690468 0.1750841
vt -0.08586502 0.1334932
vt -0.1690468 0.1750841
vt -0.2133209 0.08653584
vt -0.1301392 0.04494496
vt -0.106955 0.124209
vt -0.1088384 0.1248817
vt -0.1421357 0.03164925
vt -0.1402523 0.03097657
vt 0.106955 0.124209
vt 0.1402523 0.03097657
vt 0.1421357 0.03164924
vt 0.1088384 0.1248817
o group1869064234
g mesh1869064234
usemtl mat9
f 36/100/25 35/99/25 34/98/25 33/97/25
f 40/104/26 39/103/26 38/102/26 37/101/26
f 34/108/27 40/107/27 37/106/27 33/105/27
f 38/112/28 39/111/28 35/110/28 36/109/28
f 37/116/29 38/115/29 36/114/29 33/113/29
f 35/120/30 39/119/30 40/118/30 34/117/30
o group737597485
g mesh737597485
usemtl mat20
f 4/4/1 3/3/1 2/2/1 1/1/1
f 8/8/2 7/7/2 6/6/2 5/5/2
f 2/12/3 8/11/3 5/10/3 1/9/3
f 6/16/4 7/15/4 3/14/4 4/13/4
f 5/20/5 6/19/5 4/18/5 1/17/5
f 3/24/6 7/23/6 8/22/6 2/21/6
f 12/28/7 11/27/7 10/26/7 9/25/7
f 16/32/8 15/31/8 14/30/8 13/29/8
f 10/36/9 16/35/9 13/34/9 9/33/9
f 14/40/10 15/39/10 11/38/10 12/37/10
f 13/44/11 14/43/11 12/42/11 9/41/11
f 11/48/12 15/47/12 16/46/12 10/45/12
f 20/52/13 19/51/13 18/50/13 17/49/13
f 24/56/14 23/55/14 22/54/14 21/53/14
f 18/60/15 24/59/15 21/58/15 17/57/15
f 22/64/16 23/63/16 19/62/16 20/61/16
f 21/68/17 22/67/17 20/66/17 17/65/17
f 19/72/18 23/71/18 24/70/18 18/69/18
f 28/76/19 27/75/19 26/74/19 25/73/19
f 32/80/20 31/79/20 30/78/20 29/77/20
f 26/84/21 32/83/21 29/82/21 25/81/21
f 30/88/22 31/87/22 27/86/22 28/85/22
f 29/92/23 30/91/23 28/90/23 25/89/23
f 27/96/24 31/95/24 32/94/24 26/93/24
