# Created by Kenney (www.kenney.nl)

mtllib Chair.mtl

g mergedBlocks

v 0.5 1 0.5
v 0.5 1 -0.5
v -0.5 1 0.5
v -0.5 1 -0.5
v 0.5 1.1 -0.5
v 0.5 1.1 0.5
v -0.5 1.1 -0.5
v -0.5 1.1 0.5
v -0.5000001 0.3 0.5
v -0.5000001 0 0.5
v -0.5000001 0.3 0.36
v -0.5000001 0 0.36
v -0.38 0.35 0.48
v -0.48 0.35 0.48
v -0.38 0.45 0.48
v -0.48 0.45 0.48
v -0.48 0.35 0.38
v -0.38 0.35 0.38
v -0.48 0.45 0.38
v -0.38 0.45 0.38
v -0.36 0 0.36
v -0.36 0.3 0.36
v -0.38 0.5 0.48
v -0.48 0.5 0.48
v -0.38 1 0.48
v -0.48 1 0.48
v -0.48 1 0.38
v -0.48 0.5 0.38
v -0.36 0 0.5
v -0.36 0.3 0.5
v -0.38 1 0.38
v -0.38 0.5 0.38
v -0.5000001 0.3 -0.5
v -0.5000001 0 -0.5
v -0.3600001 0.3 -0.5
v -0.3600001 0 -0.5
v -0.4800001 0.35 -0.38
v -0.4800001 0.35 -0.48
v -0.4800001 0.45 -0.38
v -0.4800001 0.45 -0.48
v -0.3800001 0.35 -0.48
v -0.3800001 0.35 -0.38
v -0.3800001 0.45 -0.48
v -0.3800001 0.45 -0.38
v -0.36 0 -0.36
v -0.36 0.3 -0.36
v -0.4800001 0.5 -0.38
v -0.4800001 0.5 -0.48
v -0.4800001 1 -0.38
v -0.4800001 1 -0.48
v -0.3800001 1 -0.48
v -0.3800001 0.5 -0.48
v -0.5000001 0 -0.36
v -0.5000001 0.3 -0.36
v -0.3800001 1 -0.38
v -0.3800001 0.5 -0.38
v 0.5 0.3 -0.5
v 0.5 0 -0.5
v 0.5 0.3 -0.36
v 0.5 0 -0.36
v 0.38 0.35 -0.48
v 0.48 0.35 -0.48
v 0.38 0.45 -0.48
v 0.48 0.45 -0.48
v 0.48 0.35 -0.38
v 0.38 0.35 -0.38
v 0.48 0.45 -0.38
v 0.38 0.45 -0.38
v 0.36 0 -0.36
v 0.36 0.3 -0.36
v 0.38 0.5 -0.48
v 0.48 0.5 -0.48
v 0.38 1 -0.48
v 0.48 1 -0.48
v 0.48 1 -0.38
v 0.48 0.5 -0.38
v 0.36 0 -0.5
v 0.36 0.3 -0.5
v 0.38 1 -0.38
v 0.38 0.5 -0.38
v -0.45 1.1 -0.4825
v -0.45 2.6 -0.4825
v -0.50625 1.1 -0.42
v -0.50625 2.6 -0.42
v 0.50625 1.1 -0.42
v 0.50625 2.6 -0.42
v 0.45 1.1 -0.4825
v 0.45 2.6 -0.4825
v -0.01949004 2.334861 -0.3975
v -0.01949004 2.334861 -0.4425
v -0.403875 2.334861 -0.3975
v -0.403875 2.334861 -0.4425
v 0.403875 1.1 -0.4825
v 0.403875 2.6 -0.4825
v 0.01949004 1.1 -0.3975
v -0.01949004 1.1 -0.3975
v 0.01949004 2.334861 -0.3975
v -0.403875 2.399827 -0.3975
v 0.403875 2.334861 -0.3975
v -0.01949004 2.399827 -0.3975
v 0.403875 2.399827 -0.3975
v 0.01949004 2.399827 -0.3975
v -0.01949004 2.535033 -0.3975
v 0.01949004 2.535033 -0.3975
v -0.403875 2.6 -0.3975
v -0.403875 2.535033 -0.3975
v 0.403875 2.535033 -0.3975
v 0.403875 2.6 -0.3975
v -0.403875 1.1 -0.4825
v -0.403875 2.6 -0.4825
v -0.45 1.1 -0.3575
v -0.45 2.6 -0.3575
v 0.45 2.6 -0.3575
v 0.403875 2.6 -0.3575
v 0.403875 2.6 -0.4425
v -0.403875 2.6 -0.4425
v -0.403875 2.6 -0.3575
v -0.403875 1.1 -0.3575
v 0.403875 1.1 -0.3575
v 0.403875 2.334861 -0.4425
v 0.403875 2.535033 -0.4425
v 0.403875 2.399827 -0.4425
v 0.45 1.1 -0.3575
v 0.01949004 2.334861 -0.4425
v -0.403875 2.535033 -0.4425
v -0.403875 2.399827 -0.4425
v -0.01949004 2.535033 -0.4425
v 0.01949004 2.535033 -0.4425
v 0.01949004 2.399827 -0.4425
v -0.01949004 2.399827 -0.4425
v -0.01949004 1.1 -0.4425
v 0.01949004 1.1 -0.4425
v 0.5 0.3 0.5000001
v 0.5 0 0.5000001
v 0.36 0.3 0.5000001
v 0.36 0 0.5000001
v 0.48 0.35 0.3800001
v 0.48 0.35 0.4800001
v 0.48 0.45 0.3800001
v 0.48 0.45 0.4800001
v 0.38 0.35 0.4800001
v 0.38 0.35 0.3800001
v 0.38 0.45 0.4800001
v 0.38 0.45 0.3800001
v 0.36 0 0.36
v 0.36 0.3 0.36
v 0.48 0.5 0.3800001
v 0.48 0.5 0.4800001
v 0.48 1 0.3800001
v 0.48 1 0.4800001
v 0.38 1 0.4800001
v 0.38 0.5 0.4800001
v 0.5 0 0.3600001
v 0.5 0.3 0.3600001
v 0.38 1 0.3800001
v 0.38 0.5 0.3800001
v -0.49 0.5 0.3699999
v -0.49 0.5 0.4899999
v -0.37 0.5 0.4899999
v -0.37 0.5 0.3699999
v -0.49 0.45 0.3699999
v -0.37 0.45 0.3699999
v -0.49 0.45 0.4899999
v -0.37 0.45 0.4899999
v -0.3700001 0.5 -0.49
v -0.4900001 0.5 -0.49
v -0.4900001 0.5 -0.3699999
v -0.37 0.5 -0.37
v -0.3700001 0.45 -0.49
v -0.37 0.45 -0.37
v -0.4900001 0.45 -0.49
v -0.4900001 0.45 -0.3699999
v 0.49 0.5 -0.37
v 0.49 0.5 -0.49
v 0.37 0.5 -0.49
v 0.37 0.5 -0.37
v 0.49 0.45 -0.37
v 0.37 0.45 -0.37
v 0.49 0.45 -0.49
v 0.37 0.45 -0.49
v 0.3699999 0.5 0.4900001
v 0.49 0.5 0.4900001
v 0.49 0.5 0.3700001
v 0.37 0.5 0.37
v 0.3699999 0.45 0.4900001
v 0.37 0.45 0.37
v 0.49 0.45 0.4900001
v 0.49 0.45 0.3700001
v -0.455625 1.100002 -0.3499999
v -0.455625 1.100001 0.4500029
v -0.405 1.037501 -0.3499999
v -0.405 1.037501 0.4500029
v 0.455625 1.100002 -0.3499999
v 0.405 1.037501 -0.3499999
v 0.455625 1.100001 0.4500029
v 0.405 1.037501 0.4500029
v 0.405 1.162502 -0.3499999
v -0.405 1.162502 -0.3499999
v 0.405 1.162502 0.4500029
v -0.405 1.162502 0.4500029
v -0.455625 1.4 -0.35
v -0.455625 2.4 -0.35
v -0.405 1.4 -0.2875
v -0.405 2.4 -0.2875
v 0.455625 1.4 -0.35
v 0.405 1.4 -0.2875
v 0.455625 2.4 -0.35
v 0.405 2.4 -0.2875
v 0.405 1.4 -0.4125
v -0.405 1.4 -0.4125
v 0.405 2.4 -0.4125
v -0.405 2.4 -0.4125

vn 0 -1 0
vn 0 1 0
vn 1 0 0
vn 0 0 1
vn -1 0 0
vn 0 0 -1
vn -1 0 -8.742278E-08
vn -8.742278E-08 0 1
vn 8.742278E-08 0 -1
vn -0.9284768 0.3713907 -8.117001E-08
vn -8.117001E-08 0.3713907 0.9284768
vn 1 0 8.742278E-08
vn 0.9284768 0.3713907 8.117001E-08
vn 8.117001E-08 0.3713907 -0.9284768
vn -1.192093E-07 0 -1
vn -1 0 1.192093E-07
vn 1 0 -1.192093E-07
vn -1.106831E-07 0.3713907 -0.9284769
vn -0.9284769 0.3713907 1.106831E-07
vn 1.192093E-07 0 1
vn 1.106831E-07 0.3713907 0.9284769
vn 0.9284769 0.3713907 -1.106831E-07
vn 0.9284768 0.3713907 0
vn 0 0.3713907 -0.9284768
vn -0.9284768 0.3713907 0
vn 0 0.3713907 0.9284768
vn -0.7432942 0 -0.6689647
vn 0.7432942 0 -0.6689647
vn -0.7432942 0 0.6689647
vn 0.7432942 0 0.6689647
vn -1.192093E-07 0 1
vn 1 0 1.192093E-07
vn -1 0 -1.192093E-07
vn -1.106831E-07 0.3713907 0.9284769
vn 0.9284769 0.3713907 1.106831E-07
vn 1.192093E-07 0 -1
vn 1.106831E-07 0.3713907 -0.9284769
vn -0.9284769 0.3713907 -1.106831E-07
vn -0.7770648 -0.6294205 -7.503277E-08
vn 0.7770648 -0.6294205 -7.503277E-08
vn 0 1.192093E-07 -1
vn 0 -1.192093E-07 1
vn 0.7770648 0.6294205 7.503277E-08
vn 0 1 1.192093E-07
vn -0.7770648 0.6294205 7.503277E-08
vn 0 -1 -1.192093E-07
vn -0.7770638 0 0.6294217
vn 0.7770638 0 0.6294217
vn 0.7770638 0 -0.6294217
vn -0.7770638 0 -0.6294217

vt 0.5000003 1.5
vt 1.5 1.5
vt 0.4999997 0.5000003
vt 1.5 0.4999997
vt 1.5 -1.5
vt 0.5000003 -1.5
vt 1.5 -0.4999997
vt 0.4999997 -0.5000003
vt 1.5 1.1
vt 1.5 1
vt 0.5000003 1.1
vt 0.5000003 1
vt -1.5 1
vt -1.5 1.1
vt -0.4999997 1
vt -0.4999997 1.1
vt 2.5 0.3
vt 2.5 0
vt 2.36 0.3
vt 2.36 0
vt -1.38 0.35
vt -1.48 0.35
vt -1.38 0.45
vt -1.48 0.45
vt 1.48 0.35
vt 1.38 0.35
vt 1.48 0.45
vt 1.38 0.45
vt 1.5 0
vt 1.36 0
vt 1.5 0.3
vt 1.36 0.3
vt 2.48 0.45
vt 2.48 0.35
vt 2.38 0.45
vt 2.38 0.35
vt -1.38 0.5
vt -1.48 0.5
vt -1.38 1
vt -1.48 1
vt 2.48 1
vt 2.48 0.5
vt 2.38 1
vt 2.38 0.5
vt -1.36 0
vt -1.5 0
vt -1.36 0.3
vt -1.5 0.3
vt -2.48 0.35
vt -2.48 0.45
vt -2.38 0.35
vt -2.38 0.45
vt 2.48 -1.48
vt 2.38 -1.48
vt 2.48 -1.38
vt 2.38 -1.38
vt 1.48 0.5
vt 1.38 0.5
vt 1.48 1
vt 1.38 1
vt -2.5 0.3
vt -2.36 0.3
vt -2.5 0
vt -2.36 0
vt -2.48 0.5
vt -2.48 1
vt -2.38 0.5
vt -2.38 1
vt -0.4825 1
vt -0.4825 2.5
vt -0.42 1
vt -0.42 2.5
vt 0.42 1
vt 0.42 2.5
vt 0.4825 1
vt 0.4825 2.5
vt 0.01949004 0.3975
vt 0.01949004 0.4425
vt 0.403875 0.3975
vt 0.403875 0.4425
vt -0.45 1
vt -0.45 2.5
vt -0.403875 1
vt -0.403875 2.5
vt 0.01949004 1
vt -0.01949004 1
vt 0.01949004 2.234861
vt -0.01949004 2.234861
vt -0.403875 2.299828
vt -0.403875 2.234861
vt 0.403875 2.234861
vt -0.01949004 2.299828
vt 0.403875 2.299828
vt 0.01949004 2.299828
vt -0.01949004 2.435033
vt 0.01949004 2.435033
vt -0.403875 2.435033
vt 0.403875 2.435033
vt 0.403875 2.5
vt 0.45 1
vt 0.403875 1
vt 0.45 2.5
vt -0.3575 1
vt -0.3575 2.5
vt -0.50625 -0.42
vt -0.45 -0.3575
vt -0.45 -0.4825
vt -0.403875 -0.3575
vt -0.403875 -0.3975
vt -0.403875 -0.4825
vt 0.403875 -0.3975
vt -0.403875 -0.4425
vt 0.403875 -0.4425
vt 0.45 -0.3575
vt 0.403875 -0.3575
vt 0.403875 -0.4825
vt 0.45 -0.4825
vt 0.50625 -0.42
vt -0.4425 2.234861
vt -0.3975 2.234861
vt -0.3975 2.299828
vt -0.3975 2.435033
vt -0.3975 2.5
vt -0.4425 2.435033
vt -0.4425 2.299828
vt -0.4425 2.5
vt 0.3575 2.5
vt 0.3575 1
vt -0.403875 0.3975
vt -0.403875 0.4425
vt -0.01949004 0.3975
vt -0.01949004 0.4425
vt -0.50625 0.42
vt -0.45 0.4825
vt -0.45 0.3575
vt -0.403875 0.3575
vt -0.403875 0.4825
vt 0.3975 2.5
vt 0.3975 2.435033
vt 0.3975 2.299828
vt 0.3975 2.234861
vt 0.4425 2.234861
vt 0.4425 2.5
vt 0.4425 2.435033
vt 0.4425 2.299828
vt 0.4425 1
vt 0.3975 1
vt -0.4425 1
vt -0.3975 1
vt -0.01949004 -0.3975
vt -0.01949004 -0.4425
vt 0.01949004 -0.3975
vt 0.01949004 -0.4425
vt 0.403875 0.3575
vt 0.403875 0.4825
vt 0.45 0.3575
vt 0.45 0.4825
vt 0.50625 0.42
vt 2.37 -1.49
vt 2.49 -1.49
vt 2.49 -1.37
vt 2.37 -1.37
vt 1.49 0.45
vt 1.37 0.45
vt 1.49 0.5
vt 1.37 0.5
vt 2.49 0.5
vt 2.49 0.45
vt 2.37 0.5
vt 2.37 0.45
vt -2.49 0.45
vt -2.49 0.5
vt -2.37 0.45
vt -2.37 0.5
vt 2.49 1.49
vt 2.38 1.48
vt 2.37 1.49
vt 2.37 1.37
vt 2.38 1.38
vt 2.48 1.38
vt 2.48 1.48
vt 2.49 1.37
vt -1.37 0.45
vt -1.49 0.45
vt -1.37 0.5
vt -1.49 0.5
vt 2.36 1.5
vt 2.5 1.5
vt 2.36 1.36
vt 2.5 1.36
vt -0.3 1.4
vt -0.3 2.4
vt -0.2375 1.4
vt -0.2375 2.4
vt 0.3 1.4
vt 0.2375 1.4
vt 0.3 2.4
vt 0.2375 2.4
vt -0.455625 0.3
vt -0.405 0.3625
vt -0.405 0.2375
vt 0.405 0.3625
vt 0.405 0.2375
vt 0.455625 0.3
vt -0.455625 -0.3
vt -0.405 -0.2375
vt -0.405 -0.3625
vt 0.405 -0.3625
vt 0.405 -0.2375
vt 0.455625 -0.3
vt 0.3625 2.4
vt 0.3625 1.4
vt 0.405 1.4
vt -0.405 1.4
vt 0.405 2.4
vt -0.405 2.4
vt -0.3625 1.4
vt -0.3625 2.4

usemtl wood

f 3/3/1 2/2/1 1/1/1
f 2/2/1 3/3/1 4/4/1
f 7/7/2 6/6/2 5/5/2
f 6/6/2 7/7/2 8/8/2
f 6/11/3 2/10/3 5/9/3
f 2/10/3 6/11/3 1/12/3
f 6/9/4 3/12/4 1/10/4
f 3/12/4 6/9/4 8/11/4
f 3/15/5 7/14/5 4/13/5
f 7/14/5 3/15/5 8/16/5
f 7/16/6 2/13/6 4/15/6
f 2/13/6 7/16/6 5/14/6
f 11/19/7 10/18/7 9/17/7
f 10/18/7 11/19/7 12/20/7
f 15/23/8 14/22/8 13/21/8
f 14/22/8 15/23/8 16/24/8
f 19/27/9 18/26/9 17/25/9
f 18/26/9 19/27/9 20/28/9
f 11/31/9 21/30/9 12/29/9
f 21/30/9 11/31/9 22/32/9
f 19/35/7 14/34/7 16/33/7
f 14/34/7 19/35/7 17/36/7
f 25/39/8 24/38/8 23/37/8
f 24/38/8 25/39/8 26/40/8
f 27/43/7 24/42/7 26/41/7
f 24/42/7 27/43/7 28/44/7
f 30/47/8 10/46/8 29/45/8
f 10/46/8 30/47/8 9/48/8
f 14/34/10 11/19/10 9/17/10
f 11/19/10 14/34/10 17/36/10
f 13/21/11 9/48/11 30/47/11
f 9/48/11 13/21/11 14/22/11
f 18/51/12 15/50/12 13/49/12
f 15/50/12 18/51/12 20/52/12
f 25/55/2 27/54/2 26/53/2
f 27/54/2 25/55/2 31/56/2
f 27/59/9 32/58/9 28/57/9
f 32/58/9 27/59/9 31/60/9
f 22/62/13 13/49/13 30/61/13
f 13/49/13 22/62/13 18/51/13
f 17/25/14 22/32/14 11/31/14
f 22/32/14 17/25/14 18/26/14
f 21/64/12 30/61/12 29/63/12
f 30/61/12 21/64/12 22/62/12
f 32/67/12 25/66/12 23/65/12
f 25/66/12 32/67/12 31/68/12
f 35/19/15 34/18/15 33/17/15
f 34/18/15 35/19/15 36/20/15
f 39/23/16 38/22/16 37/21/16
f 38/22/16 39/23/16 40/24/16
f 43/27/17 42/26/17 41/25/17
f 42/26/17 43/27/17 44/28/17
f 35/31/17 45/30/17 36/29/17
f 45/30/17 35/31/17 46/32/17
f 43/35/15 38/34/15 40/33/15
f 38/34/15 43/35/15 41/36/15
f 49/39/16 48/38/16 47/37/16
f 48/38/16 49/39/16 50/40/16
f 51/43/15 48/42/15 50/41/15
f 48/42/15 51/43/15 52/44/15
f 54/47/16 34/46/16 53/45/16
f 34/46/16 54/47/16 33/48/16
f 38/34/18 35/19/18 33/17/18
f 35/19/18 38/34/18 41/36/18
f 37/21/19 33/48/19 54/47/19
f 33/48/19 37/21/19 38/22/19
f 42/51/20 39/50/20 37/49/20
f 39/50/20 42/51/20 44/52/20
f 49/55/2 51/54/2 50/53/2
f 51/54/2 49/55/2 55/56/2
f 51/59/17 56/58/17 52/57/17
f 56/58/17 51/59/17 55/60/17
f 46/62/21 37/49/21 54/61/21
f 37/49/21 46/62/21 42/51/21
f 41/25/22 46/32/22 35/31/22
f 46/32/22 41/25/22 42/26/22
f 45/64/20 54/61/20 53/63/20
f 54/61/20 45/64/20 46/62/20
f 56/67/20 49/66/20 47/65/20
f 49/66/20 56/67/20 55/68/20
f 59/19/3 58/18/3 57/17/3
f 58/18/3 59/19/3 60/20/3
f 63/23/6 62/22/6 61/21/6
f 62/22/6 63/23/6 64/24/6
f 67/27/4 66/26/4 65/25/4
f 66/26/4 67/27/4 68/28/4
f 59/31/4 69/30/4 60/29/4
f 69/30/4 59/31/4 70/32/4
f 67/35/3 62/34/3 64/33/3
f 62/34/3 67/35/3 65/36/3
f 73/39/6 72/38/6 71/37/6
f 72/38/6 73/39/6 74/40/6
f 75/43/3 72/42/3 74/41/3
f 72/42/3 75/43/3 76/44/3
f 78/47/6 58/46/6 77/45/6
f 58/46/6 78/47/6 57/48/6
f 62/34/23 59/19/23 57/17/23
f 59/19/23 62/34/23 65/36/23
f 61/21/24 57/48/24 78/47/24
f 57/48/24 61/21/24 62/22/24
f 66/51/5 63/50/5 61/49/5
f 63/50/5 66/51/5 68/52/5
f 73/55/2 75/54/2 74/53/2
f 75/54/2 73/55/2 79/56/2
f 75/59/4 80/58/4 76/57/4
f 80/58/4 75/59/4 79/60/4
f 70/62/25 61/49/25 78/61/25
f 61/49/25 70/62/25 66/51/25
f 65/25/26 70/32/26 59/31/26
f 70/32/26 65/25/26 66/26/26
f 69/64/5 78/61/5 77/63/5
f 78/61/5 69/64/5 70/62/5
f 80/67/5 73/66/5 71/65/5
f 73/66/5 80/67/5 79/68/5
f 83/71/27 82/70/27 81/69/27
f 82/70/27 83/71/27 84/72/27
f 87/75/28 86/74/28 85/73/28
f 86/74/28 87/75/28 88/76/28
f 91/79/1 90/78/1 89/77/1
f 90/78/1 91/79/1 92/80/1
f 93/83/6 88/82/6 87/81/6
f 88/82/6 93/83/6 94/84/6
f 97/87/4 96/86/4 95/85/4
f 96/86/4 97/87/4 89/88/4
f 98/89/4 89/88/4 97/87/4
f 89/88/4 98/89/4 91/90/4
f 98/89/4 97/87/4 99/91/4
f 98/89/4 99/91/4 100/92/4
f 100/92/4 99/91/4 101/93/4
f 100/92/4 101/93/4 102/94/4
f 102/94/4 103/95/4 100/92/4
f 103/95/4 102/94/4 104/96/4
f 105/84/4 103/95/4 104/96/4
f 103/95/4 105/84/4 106/97/4
f 105/84/4 104/96/4 107/98/4
f 105/84/4 107/98/4 108/99/4
f 82/102/6 109/101/6 81/100/6
f 109/101/6 82/102/6 110/99/6
f 111/103/29 84/72/29 83/71/29
f 84/72/29 111/103/29 112/104/29
f 88/107/2 113/106/2 86/105/2
f 113/106/2 88/107/2 114/108/2
f 114/108/2 88/107/2 108/109/2
f 108/109/2 88/107/2 94/110/2
f 108/99/2 94/99/2 115/99/2
f 115/112/2 105/111/2 108/109/2
f 105/111/2 115/112/2 116/113/2
f 112/114/2 105/111/2 116/113/2
f 105/111/2 112/114/2 117/115/2
f 112/114/2 116/113/2 110/116/2
f 112/114/2 110/116/2 82/117/2
f 112/114/2 82/117/2 84/118/2
f 118/83/4 112/82/4 111/81/4
f 112/82/4 118/83/4 117/84/4
f 119/103/5 94/70/5 93/69/5
f 94/70/5 119/103/5 120/119/5
f 120/119/5 119/103/5 99/120/5
f 99/120/5 119/103/5 101/121/5
f 101/121/5 119/103/5 107/122/5
f 107/122/5 119/103/5 108/123/5
f 108/123/5 119/103/5 114/104/5
f 121/124/5 101/121/5 107/122/5
f 101/121/5 121/124/5 122/125/5
f 120/119/5 115/126/5 94/70/5
f 115/99/5 120/91/5 122/93/5
f 115/99/5 122/93/5 121/98/5
f 113/127/30 85/73/30 86/74/30
f 85/73/30 113/127/30 123/128/30
f 113/102/4 119/101/4 123/100/4
f 119/101/4 113/102/4 114/99/4
f 97/131/1 120/130/1 99/129/1
f 120/130/1 97/131/1 124/132/1
f 123/135/1 87/134/1 85/133/1
f 87/134/1 123/135/1 119/136/1
f 87/134/1 119/136/1 93/137/1
f 117/127/3 106/139/3 105/138/3
f 106/139/3 117/127/3 98/140/3
f 98/140/3 117/127/3 91/141/3
f 118/128/3 91/141/3 117/127/3
f 118/128/3 92/142/3 91/141/3
f 109/75/3 92/142/3 118/128/3
f 109/75/3 116/143/3 92/142/3
f 116/143/3 109/75/3 110/76/3
f 92/90/3 116/84/3 125/97/3
f 92/90/3 125/97/3 126/89/3
f 106/139/3 126/145/3 125/144/3
f 126/145/3 106/139/3 98/140/3
f 116/99/6 127/96/6 125/98/6
f 127/96/6 116/99/6 128/95/6
f 128/95/6 116/99/6 121/97/6
f 121/97/6 116/99/6 115/84/6
f 129/92/6 127/96/6 128/95/6
f 127/96/6 129/92/6 130/94/6
f 122/93/6 130/92/6 129/94/6
f 120/90/6 130/94/6 122/89/6
f 120/90/6 126/93/6 130/94/6
f 124/88/6 126/93/6 120/90/6
f 90/87/6 126/93/6 124/88/6
f 126/93/6 90/87/6 92/91/6
f 124/88/6 131/85/6 90/87/6
f 131/85/6 124/88/6 132/86/6
f 106/79/1 127/78/1 103/77/1
f 127/78/1 106/79/1 125/80/1
f 124/142/3 95/147/3 132/146/3
f 95/147/3 124/142/3 97/141/3
f 104/131/1 121/130/1 107/129/1
f 121/130/1 104/131/1 128/132/1
f 96/149/5 90/119/5 131/148/5
f 90/119/5 96/149/5 89/120/5
f 100/121/5 127/124/5 130/125/5
f 127/124/5 100/121/5 103/122/5
f 122/112/2 102/150/2 101/109/2
f 102/150/2 122/112/2 129/151/2
f 130/153/2 98/111/2 100/152/2
f 98/111/2 130/153/2 126/113/2
f 96/77/1 132/132/1 95/131/1
f 132/132/1 96/77/1 131/78/1
f 111/156/1 109/155/1 118/154/1
f 109/155/1 111/156/1 81/157/1
f 81/157/1 111/156/1 83/158/1
f 104/139/3 129/145/3 128/144/3
f 129/145/3 104/139/3 102/140/3
f 135/19/31 134/18/31 133/17/31
f 134/18/31 135/19/31 136/20/31
f 139/23/32 138/22/32 137/21/32
f 138/22/32 139/23/32 140/24/32
f 143/27/33 142/26/33 141/25/33
f 142/26/33 143/27/33 144/28/33
f 135/31/33 145/30/33 136/29/33
f 145/30/33 135/31/33 146/32/33
f 143/35/31 138/34/31 140/33/31
f 138/34/31 143/35/31 141/36/31
f 149/39/32 148/38/32 147/37/32
f 148/38/32 149/39/32 150/40/32
f 151/43/31 148/42/31 150/41/31
f 148/42/31 151/43/31 152/44/31
f 154/47/32 134/46/32 153/45/32
f 134/46/32 154/47/32 133/48/32
f 138/34/34 135/19/34 133/17/34
f 135/19/34 138/34/34 141/36/34
f 137/21/35 133/48/35 154/47/35
f 133/48/35 137/21/35 138/22/35
f 142/51/36 139/50/36 137/49/36
f 139/50/36 142/51/36 144/52/36
f 149/55/2 151/54/2 150/53/2
f 151/54/2 149/55/2 155/56/2
f 151/59/33 156/58/33 152/57/33
f 156/58/33 151/59/33 155/60/33
f 146/62/37 137/49/37 154/61/37
f 137/49/37 146/62/37 142/51/37
f 141/25/38 146/32/38 135/31/38
f 146/32/38 141/25/38 142/26/38
f 145/64/36 154/61/36 153/63/36
f 154/61/36 145/64/36 146/62/36
f 156/67/36 149/66/36 147/65/36
f 149/66/36 156/67/36 155/68/36

usemtl woodDark

f 158/160/2 24/53/2 157/159/2
f 24/53/2 158/160/2 159/161/2
f 24/53/2 159/161/2 23/55/2
f 23/55/2 159/161/2 32/56/2
f 28/54/2 157/159/2 24/53/2
f 157/159/2 28/54/2 160/162/2
f 160/162/2 28/54/2 32/56/2
f 160/162/2 32/56/2 159/161/2
f 157/165/9 162/164/9 161/163/9
f 162/164/9 157/165/9 160/166/9
f 157/169/7 163/168/7 158/167/7
f 163/168/7 157/169/7 161/170/7
f 162/173/12 159/172/12 164/171/12
f 159/172/12 162/173/12 160/174/12
f 161/177/1 19/176/1 163/175/1
f 19/176/1 161/177/1 162/178/1
f 19/176/1 162/178/1 20/179/1
f 20/179/1 162/178/1 15/180/1
f 16/181/1 163/175/1 19/176/1
f 163/175/1 16/181/1 164/182/1
f 164/182/1 16/181/1 15/180/1
f 164/182/1 15/180/1 162/178/1
f 159/185/8 163/184/8 164/183/8
f 163/184/8 159/185/8 158/186/8
f 166/160/2 48/53/2 165/159/2
f 48/53/2 166/160/2 167/161/2
f 48/53/2 167/161/2 47/55/2
f 47/55/2 167/161/2 56/56/2
f 52/54/2 165/159/2 48/53/2
f 165/159/2 52/54/2 168/162/2
f 168/162/2 52/54/2 56/56/2
f 168/162/2 56/56/2 167/161/2
f 165/165/17 170/164/17 169/163/17
f 170/164/17 165/165/17 168/166/17
f 165/169/15 171/168/15 166/167/15
f 171/168/15 165/169/15 169/170/15
f 170/173/20 167/172/20 172/171/20
f 167/172/20 170/173/20 168/174/20
f 169/177/1 43/176/1 171/175/1
f 43/176/1 169/177/1 170/178/1
f 43/176/1 170/178/1 44/179/1
f 44/179/1 170/178/1 39/180/1
f 40/181/1 171/175/1 43/176/1
f 171/175/1 40/181/1 172/182/1
f 172/182/1 40/181/1 39/180/1
f 172/182/1 39/180/1 170/178/1
f 167/185/16 171/184/16 172/183/16
f 171/184/16 167/185/16 166/186/16
f 174/160/2 72/53/2 173/159/2
f 72/53/2 174/160/2 175/161/2
f 72/53/2 175/161/2 71/55/2
f 71/55/2 175/161/2 80/56/2
f 76/54/2 173/159/2 72/53/2
f 173/159/2 76/54/2 176/162/2
f 176/162/2 76/54/2 80/56/2
f 176/162/2 80/56/2 175/161/2
f 173/165/4 178/164/4 177/163/4
f 178/164/4 173/165/4 176/166/4
f 173/169/3 179/168/3 174/167/3
f 179/168/3 173/169/3 177/170/3
f 178/173/5 175/172/5 180/171/5
f 175/172/5 178/173/5 176/174/5
f 177/177/1 67/176/1 179/175/1
f 67/176/1 177/177/1 178/178/1
f 67/176/1 178/178/1 68/179/1
f 68/179/1 178/178/1 63/180/1
f 64/181/1 179/175/1 67/176/1
f 179/175/1 64/181/1 180/182/1
f 180/182/1 64/181/1 63/180/1
f 180/182/1 63/180/1 178/178/1
f 175/185/6 179/184/6 180/183/6
f 179/184/6 175/185/6 174/186/6
f 182/160/2 148/53/2 181/159/2
f 148/53/2 182/160/2 183/161/2
f 148/53/2 183/161/2 147/55/2
f 147/55/2 183/161/2 156/56/2
f 152/54/2 181/159/2 148/53/2
f 181/159/2 152/54/2 184/162/2
f 184/162/2 152/54/2 156/56/2
f 184/162/2 156/56/2 183/161/2
f 181/165/33 186/164/33 185/163/33
f 186/164/33 181/165/33 184/166/33
f 181/169/31 187/168/31 182/167/31
f 187/168/31 181/169/31 185/170/31
f 186/173/36 183/172/36 188/171/36
f 183/172/36 186/173/36 184/174/36
f 185/177/1 143/176/1 187/175/1
f 143/176/1 185/177/1 186/178/1
f 143/176/1 186/178/1 144/179/1
f 144/179/1 186/178/1 139/180/1
f 140/181/1 187/175/1 143/176/1
f 187/175/1 140/181/1 188/182/1
f 188/182/1 140/181/1 139/180/1
f 188/182/1 139/180/1 186/178/1
f 183/185/32 187/184/32 188/183/32
f 187/184/32 183/185/32 182/186/32

usemtl _defaultMat

f 21/189/1 10/188/1 12/187/1
f 10/188/1 21/189/1 29/190/1
f 45/189/1 34/188/1 36/187/1
f 34/188/1 45/189/1 53/190/1
f 69/189/1 58/188/1 60/187/1
f 58/188/1 69/189/1 77/190/1
f 145/189/1 134/188/1 136/187/1
f 134/188/1 145/189/1 153/190/1

usemtl stone

f 191/193/39 190/192/39 189/191/39
f 190/192/39 191/193/39 192/194/39
f 195/197/40 194/196/40 193/195/40
f 194/196/40 195/197/40 196/198/40
f 194/201/41 197/200/41 193/199/41
f 197/200/41 194/201/41 198/202/41
f 198/202/41 194/201/41 191/203/41
f 198/202/41 191/203/41 189/204/41
f 199/207/42 196/206/42 195/205/42
f 196/206/42 199/207/42 200/208/42
f 196/206/42 200/208/42 192/209/42
f 192/209/42 200/208/42 190/210/42
f 195/197/43 197/212/43 199/211/43
f 197/212/43 195/197/43 193/195/43
f 200/215/44 197/214/44 198/213/44
f 197/214/44 200/215/44 199/216/44
f 190/192/45 198/217/45 189/191/45
f 198/217/45 190/192/45 200/218/45
f 196/215/46 191/214/46 194/213/46
f 191/214/46 196/215/46 192/216/46
f 203/193/47 202/192/47 201/191/47
f 202/192/47 203/193/47 204/194/47
f 207/197/48 206/196/48 205/195/48
f 206/196/48 207/197/48 208/198/48
f 206/201/1 209/200/1 205/199/1
f 209/200/1 206/201/1 210/202/1
f 210/202/1 206/201/1 203/203/1
f 210/202/1 203/203/1 201/204/1
f 211/207/2 208/206/2 207/205/2
f 208/206/2 211/207/2 212/208/2
f 208/206/2 212/208/2 204/209/2
f 204/209/2 212/208/2 202/210/2
f 207/197/49 209/212/49 211/211/49
f 209/212/49 207/197/49 205/195/49
f 212/215/6 209/214/6 210/213/6
f 209/214/6 212/215/6 211/216/6
f 202/192/50 210/217/50 201/191/50
f 210/217/50 202/192/50 212/218/50
f 208/215/4 203/214/4 206/213/4
f 203/214/4 208/215/4 204/216/4

