# Created by Kenney (www.kenney.nl)

mtllib GreebusExteriorMinimal.mtl

g mergedBlocks

v 0.5 0.8 -1.6
v 0.5 0.4999999 -1.6
v 0.5 0.8 -0.6
v 0.5 0.4999999 -1.5
v 0.5 0.4999999 -0.7
v 0.5 0.4999999 -0.6
v -0.3 1 -0.6
v -0.3 1 -1.6
v 0.3 1 -0.6
v 0.3 1 -1.6
v -0.5 0.8000001 -0.6
v -0.5000001 0.5 -0.6
v -0.4 0.5 -0.6
v 0.4 0.4999999 -0.6
v -0.5000001 0.5 -1.6
v -0.5 0.8000001 -1.6
v -0.5000001 0.5 -1.5
v -0.5000001 0.5 -0.7
v 0.4 0.4999999 -1.6
v -0.4 0.5 -1.6
v -0.5000001 0.1000001 -0.6
v -0.4000001 0.1414215 -0.6
v -0.3585787 0.1000001 -0.6
v -0.4000001 5.960464E-08 -0.6
v 0.3585786 0.09999996 -0.6
v 0.4999999 0.09999996 -0.6
v 0.3999999 0 -0.6
v 0.3999999 0.1414214 -0.6
v 0.4 0.4999999 -1.5
v 0.4 0.4999999 -0.7
v -0.4 0.5 -0.7
v -0.4 0.5 -1.5
v 0.4999999 0.09999996 -1.6
v 0.3999999 0.1414214 -1.6
v 0.3585786 0.09999996 -1.6
v 0.3999999 0 -1.6
v -0.3585787 0.1000001 -1.6
v -0.5000001 0.1000001 -1.6
v -0.4000001 5.960464E-08 -1.6
v -0.4000001 0.1414215 -1.6
v -0.5000001 0.1000001 -1.5
v -0.4000001 0.1414215 -1.5
v -0.3585787 0.1000001 -1.5
v -0.4000001 5.960464E-08 -1.5
v 0.3585786 0.09999996 -1.5
v 0.4999999 0.09999996 -1.5
v 0.3999999 0 -1.5
v 0.3999999 0.1414214 -1.5
v 0.4999999 0.09999996 -0.7
v 0.3999999 0.1414214 -0.7
v 0.3585786 0.09999996 -0.7
v 0.3999999 0 -0.7
v -0.3585787 0.1000001 -0.7
v -0.5000001 0.1000001 -0.7
v -0.4000001 5.960464E-08 -0.7
v -0.4000001 0.1414215 -0.7
v -0.25 0.75 -1.3
v -0.25 0.75 -1.25
v -0.125 0.5334936 -1.3
v -0.125 0.5334936 -1.25
v 0.125 0.5334936 -1.25
v 0.125 0.5334936 -1.3
v 0.075 0.6200962 -1.25
v 0.25 0.75 -1.25
v 0.15 0.75 -1.25
v 0.125 0.9665064 -1.25
v 0.075 0.8799038 -1.25
v -0.075 0.8799038 -1.25
v -0.075 0.6200962 -1.25
v -0.15 0.75 -1.25
v -0.125 0.9665064 -1.25
v 0.125 0.5334936 -1.75
v -0.075 0.6200962 -1.75
v -0.125 0.5334936 -1.75
v -0.25 0.75 -1.75
v -0.15 0.75 -1.75
v -0.125 0.9665064 -1.75
v -0.075 0.8799038 -1.75
v 0.075 0.8799038 -1.75
v 0.075 0.6200962 -1.75
v 0.25 0.75 -1.75
v 0.15 0.75 -1.75
v 0.125 0.9665064 -1.75
v 0.125 0.9665064 -1.3
v -0.125 0.9665064 -1.3
v 0.25 0.75 -1.7
v 0.125 0.5334936 -1.7
v -0.125 0.5334936 -1.7
v -0.25 0.75 -1.7
v 0.25 0.75 -1.3
v -0.05 0.5517949 -1.7
v -0.1 0.5767949 -1.7
v -0.05 0.5767949 -1.7
v 0.05 0.5517949 -1.7
v 0.1 0.5767949 -1.7
v 0.1466506 0.6075962 -1.7
v 0.1966506 0.6941987 -1.7
v 0.175 0.7066987 -1.7
v 0.2 0.75 -1.7
v 0.1966506 0.8058013 -1.7
v 0.125 0.9665064 -1.7
v 0.175 0.7933012 -1.7
v 0.1466506 0.8924038 -1.7
v 0.1 0.9232051 -1.7
v 0.05 0.9482051 -1.7
v -0.05 0.9482051 -1.7
v -0.125 0.9665064 -1.7
v -0.1 0.9232051 -1.7
v -0.05 0.9232051 -1.7
v -0.1466506 0.8924038 -1.7
v -0.125 0.8799038 -1.7
v -0.1966506 0.8058013 -1.7
v -0.175 0.7933012 -1.7
v -0.2 0.75 -1.7
v -0.175 0.7066987 -1.7
v -0.1966506 0.6941987 -1.7
v -0.1466506 0.6075962 -1.7
v -0.125 0.6200962 -1.7
v 0.05 0.9232051 -1.7
v 0.125 0.8799038 -1.7
v 0.125 0.6200962 -1.7
v 0.05 0.5767949 -1.7
v 0.05 0.5517949 -1.3
v 0.1 0.5767949 -1.3
v 0.05 0.5767949 -1.3
v 0.1466506 0.6075962 -1.3
v 0.125 0.6200962 -1.3
v -0.05 0.5517949 -1.3
v -0.1 0.5767949 -1.3
v -0.1466506 0.6075962 -1.3
v -0.1966506 0.6941987 -1.3
v -0.175 0.7066987 -1.3
v -0.2 0.75 -1.3
v -0.1966506 0.8058013 -1.3
v -0.175 0.7933012 -1.3
v -0.1466506 0.8924038 -1.3
v -0.1 0.9232051 -1.3
v -0.05 0.9482051 -1.3
v 0.05 0.9482051 -1.3
v 0.1 0.9232051 -1.3
v 0.05 0.9232051 -1.3
v 0.1466506 0.8924038 -1.3
v 0.125 0.8799038 -1.3
v 0.1966506 0.8058013 -1.3
v 0.175 0.7933012 -1.3
v 0.2 0.75 -1.3
v 0.175 0.7066987 -1.3
v 0.1966506 0.6941987 -1.3
v -0.05 0.9232051 -1.3
v -0.125 0.8799038 -1.3
v -0.125 0.6200962 -1.3
v -0.05 0.5767949 -1.3
v 0.075 0.6200962 -1.275
v -0.075 0.6200962 -1.275
v 0.15 0.75 -1.275
v -0.15 0.75 -1.275
v 0.075 0.8799038 -1.275
v -0.075 0.8799038 -1.275
v 0.075 0.8799038 -1.725
v 0.15 0.75 -1.725
v -0.075 0.6200962 -1.725
v 0.075 0.6200962 -1.725
v -0.15 0.75 -1.725
v -0.075 0.8799038 -1.725

vn 1 -8.742278E-08 0
vn 8.742278E-08 1 0
vn 0 0 1
vn -1 8.742278E-08 0
vn 0 0 -1
vn 0.7071068 0.7071067 0
vn -0.7071067 0.7071068 0
vn -8.742278E-08 -1 0
vn 0.7071067 -0.7071068 0
vn -0.7071068 -0.7071067 0
vn -0.8660254 -0.5 0
vn 0 -1 0
vn 0 1 0
vn 0.8660254 -0.5 0
vn 0.8660254 0.5 0
vn -0.8660254 0.5 0
vn 1 0 0
vn -1 0 0
vn 0.5 -0.8660254 0
vn 0.5 0.8660254 0
vn -0.5 0.8660254 0
vn -0.5 -0.8660254 0

vt -19.68504 7.874016
vt -19.68504 19.68504
vt 19.68504 7.874016
vt -15.74803 19.68504
vt 15.74803 19.68504
vt 19.68504 19.68504
vt 11.81102 19.68504
vt 11.81102 -19.68504
vt -11.81102 19.68504
vt -11.81102 -19.68504
vt -11.81102 3.901641E-15
vt 11.81102 1.598721E-14
vt 11.81102 3.901641E-15
vt -11.81102 1.598721E-14
vt 19.68504 8.351655
vt -19.68504 8.351655
vt 19.68504 19.48719
vt -19.68504 19.48719
vt 15.74803 26.89026
vt 19.68504 26.89026
vt 15.74803 7.205225
vt 19.68504 7.205225
vt 9.84252 19.68504
vt 9.84252 15.74803
vt -9.84252 19.68504
vt -9.84252 15.74803
vt -9.84252 2.637295
vt 5.905512 9.456392
vt 9.84252 2.637295
vt 9.84252 36.73278
vt 5.905512 29.91368
vt -5.905512 29.91368
vt -5.905512 9.456392
vt -9.84252 36.73278
vt -9.84252 2.637295
vt 5.905512 9.456393
vt 9.84252 2.637295
vt 5.905512 29.91369
vt -5.905512 29.91369
vt -5.905512 9.456393
vt 9.84252 -15.74803
vt 9.84252 -19.68504
vt -9.84252 -15.74803
vt -9.84252 -19.68504
vt -19.68504 26.89026
vt -15.74803 26.89026
vt -19.68504 7.205225
vt -15.74803 7.205225
vt -3.937008 4.078341
vt -7.874016 6.046844
vt -3.937008 6.046844
vt 3.937008 4.078341
vt 7.874016 6.046844
vt 11.54729 8.472141
vt 15.4843 15.29124
vt 13.77953 16.27549
vt 15.4843 24.07884
vt 13.77953 23.09459
vt 11.54729 30.89794
vt 7.874016 33.32323
vt 3.937008 35.29174
vt -3.937008 35.29174
vt -7.874016 33.32323
vt -3.937008 33.32323
vt -11.54729 30.89794
vt -9.84252 29.91369
vt -15.4843 24.07884
vt -13.77953 23.09459
vt -13.77953 16.27549
vt -15.4843 15.29124
vt -11.54729 8.472141
vt -9.84252 9.456393
vt 3.937008 33.32323
vt 9.84252 29.91369
vt 9.84252 9.456393
vt 3.937008 6.046844
vt -3.937008 4.07834
vt -7.874016 6.046844
vt -3.937008 6.046844
vt -11.54729 8.47214
vt -9.84252 9.456392
vt 3.937008 4.07834
vt 7.874016 6.046844
vt 11.54729 8.47214
vt 15.4843 15.29124
vt 13.77953 16.27549
vt 13.77953 23.09459
vt 3.937008 35.29174
vt -3.937008 35.29174
vt -9.84252 29.91368
vt -13.77953 23.09459
vt -13.77953 16.27549
vt -15.4843 15.29124
vt 9.84252 29.91368
vt 9.84252 9.456392
vt 3.937008 6.046844
vt 5.905512 19.68504
vt 5.905512 17.71654
vt -5.905512 19.68504
vt -5.905512 17.71654
vt -19.68504 22.95326
vt -17.71654 22.95326
vt -19.68504 11.14223
vt -17.71654 11.14223
vt -19.68504 11.14223
vt 17.71654 22.95326
vt 19.68504 22.95326
vt 17.71654 11.14223
vt 19.68504 11.14223
vt 19.68504 11.14223
vt -5.905512 -19.68504
vt -5.905512 -17.71654
vt 5.905512 -19.68504
vt 5.905512 -17.71654
vt 3.937008 -15.74803
vt 3.937008 15.74803
vt 7.874016 -15.74803
vt 7.874016 15.74803
vt 15.74803 35.29174
vt 15.74803 33.32323
vt -15.74803 35.29174
vt -15.74803 33.32323
vt -15.74803 6.046844
vt 15.74803 6.046844
vt -15.74803 4.07834
vt 15.74803 4.07834
vt 15.74803 24.92176
vt 15.74803 20.98475
vt -15.74803 24.92176
vt -15.74803 20.98475
vt -15.74803 -3.795676
vt 15.74803 -3.795676
vt -15.74803 -5.76418
vt 15.74803 -5.76418
vt -15.74803 -3.795676
vt 15.74803 -3.795676
vt 15.74803 13.11074
vt 15.74803 9.173729
vt -15.74803 13.11074
vt -15.74803 9.173728
vt -3.937008 15.74803
vt -3.937008 -15.74803
vt -15.74803 9.173729
vt 15.74803 9.173728
vt -15.74803 25.44922
vt 15.74803 25.44922
vt -15.74803 23.48071
vt 15.74803 23.48071
vt -7.874016 -15.74803
vt -7.874016 15.74803

usemtl metalPurple

f 3/3/1 2/2/1 1/1/1
f 2/2/1 3/3/1 4/4/1
f 4/4/1 3/3/1 5/5/1
f 5/5/1 3/3/1 6/6/1
f 9/9/2 8/8/2 7/7/2
f 8/8/2 9/9/2 10/10/2
f 7/12/3 3/1/3 9/11/3
f 3/1/3 7/12/3 11/3/3
f 3/1/3 11/3/3 12/6/3
f 3/1/3 12/6/3 6/2/3
f 6/2/3 12/6/3 13/5/3
f 6/2/3 13/5/3 14/4/3
f 17/5/4 16/3/4 15/6/4
f 16/3/4 17/5/4 11/1/4
f 11/1/4 17/5/4 18/4/4
f 11/1/4 18/4/4 12/2/4
f 1/3/5 8/14/5 10/13/5
f 8/14/5 1/3/5 16/1/5
f 16/1/5 1/3/5 2/6/5
f 16/1/5 2/6/5 15/2/5
f 15/2/5 2/6/5 19/5/5
f 15/2/5 19/5/5 20/4/5
f 3/17/6 10/16/6 9/15/6
f 10/16/6 3/17/6 1/18/6
f 7/16/7 16/17/7 11/18/7
f 16/17/7 7/16/7 8/15/7

usemtl _defaultMat

f 21/8/3 13/9/3 12/10/3
f 13/8/3 21/9/3 22/10/3
f 22/8/3 21/9/3 23/10/3
f 23/8/3 21/9/3 24/10/3
f 23/8/3 24/9/3 25/10/3
f 25/8/3 24/9/3 26/10/3
f 26/8/3 24/9/3 27/10/3
f 28/8/3 6/9/3 14/10/3
f 6/8/3 28/9/3 26/10/3
f 26/8/3 28/9/3 25/10/3
f 4/2/8 30/5/8 29/4/8
f 14/2/8 19/5/8 29/4/8
f 32/2/8 19/5/8 31/4/8
f 31/2/8 19/5/8 13/4/8
f 13/2/8 19/5/8 14/4/8
f 14/2/8 29/5/8 30/4/8
f 32/2/8 18/5/8 17/4/8
f 18/2/8 32/5/8 31/4/8
f 19/2/8 32/5/8 20/4/8
f 30/2/8 4/5/8 5/4/8
f 33/2/5 19/5/5 2/4/5
f 19/2/5 33/5/5 34/4/5
f 34/2/5 33/5/5 35/4/5
f 35/2/5 33/5/5 36/4/5
f 35/2/5 36/5/5 37/4/5
f 37/2/5 36/5/5 38/4/5
f 38/2/5 36/5/5 39/4/5
f 38/2/5 40/5/5 37/4/5
f 15/2/5 40/5/5 38/4/5
f 40/2/5 15/5/5 20/4/5
f 41/2/3 32/5/3 17/4/3
f 32/2/3 41/5/3 42/4/3
f 42/2/3 41/5/3 43/4/3
f 43/2/3 41/5/3 44/4/3
f 43/2/3 44/5/3 45/4/3
f 45/2/3 44/5/3 46/4/3
f 46/2/3 44/5/3 47/4/3
f 46/2/3 48/5/3 45/4/3
f 4/2/3 48/5/3 46/4/3
f 48/2/3 4/5/3 29/4/3
f 32/2/1 40/5/1 20/4/1
f 40/2/1 32/5/1 42/4/1
f 42/2/6 37/5/6 40/4/6
f 37/2/6 42/5/6 43/4/6
f 45/2/2 37/5/2 43/4/2
f 37/2/2 45/5/2 35/4/2
f 45/2/7 34/5/7 35/4/7
f 34/2/7 45/5/7 48/4/7
f 48/2/4 19/5/4 34/4/4
f 19/2/4 48/5/4 29/4/4
f 4/2/1 33/5/1 2/4/1
f 33/2/1 4/5/1 46/4/1
f 46/2/9 36/5/9 33/4/9
f 36/2/9 46/5/9 47/4/9
f 36/2/8 44/5/8 39/4/8
f 44/2/8 36/5/8 47/4/8
f 44/2/10 38/5/10 39/4/10
f 38/2/10 44/5/10 41/4/10
f 41/2/4 15/5/4 38/4/4
f 15/2/4 41/5/4 17/4/4
f 49/2/5 30/5/5 5/4/5
f 30/2/5 49/5/5 50/4/5
f 50/2/5 49/5/5 51/4/5
f 51/2/5 49/5/5 52/4/5
f 51/2/5 52/5/5 53/4/5
f 53/2/5 52/5/5 54/4/5
f 54/2/5 52/5/5 55/4/5
f 54/2/5 56/5/5 53/4/5
f 18/2/5 56/5/5 54/4/5
f 56/2/5 18/5/5 31/4/5
f 6/2/1 49/5/1 5/4/1
f 49/2/1 6/5/1 26/4/1
f 28/2/4 30/5/4 50/4/4
f 30/2/4 28/5/4 14/4/4
f 25/2/7 50/5/7 51/4/7
f 50/2/7 25/5/7 28/4/7
f 25/2/2 53/5/2 23/4/2
f 53/2/2 25/5/2 51/4/2
f 22/2/6 53/5/6 56/4/6
f 53/2/6 22/5/6 23/4/6
f 13/2/1 56/5/1 31/4/1
f 56/2/1 13/5/1 22/4/1
f 21/2/4 18/5/4 54/4/4
f 18/2/4 21/5/4 12/4/4
f 24/2/10 54/5/10 55/4/10
f 54/2/10 24/5/10 21/4/10
f 52/2/8 24/5/8 55/4/8
f 24/2/8 52/5/8 27/4/8
f 26/2/9 52/5/9 49/4/9
f 52/2/9 26/5/9 27/4/9

usemtl metal

f 59/21/11 58/20/11 57/19/11
f 58/20/11 59/21/11 60/22/11
f 60/25/12 62/24/12 61/23/12
f 62/24/12 60/25/12 59/26/12
f 61/29/3 63/28/3 60/27/3
f 63/28/3 61/29/3 64/6/3
f 63/28/3 64/6/3 65/7/3
f 65/7/3 64/6/3 66/30/3
f 65/7/3 66/30/3 67/31/3
f 67/31/3 66/30/3 68/32/3
f 69/33/3 60/27/3 63/28/3
f 60/27/3 69/33/3 58/2/3
f 58/2/3 69/33/3 70/9/3
f 58/2/3 70/9/3 68/32/3
f 58/2/3 68/32/3 71/34/3
f 71/34/3 68/32/3 66/30/3
f 74/37/5 73/36/5 72/35/5
f 73/36/5 74/37/5 75/6/5
f 73/36/5 75/6/5 76/7/5
f 76/7/5 75/6/5 77/30/5
f 76/7/5 77/30/5 78/38/5
f 78/38/5 77/30/5 79/39/5
f 80/40/5 72/35/5 73/36/5
f 72/35/5 80/40/5 81/2/5
f 81/2/5 80/40/5 82/9/5
f 81/2/5 82/9/5 79/39/5
f 81/2/5 79/39/5 83/34/5
f 83/34/5 79/39/5 77/30/5
f 85/24/13 66/25/13 84/26/13
f 66/25/13 85/24/13 71/23/13
f 86/19/14 72/22/14 81/20/14
f 72/22/14 86/19/14 87/21/14
f 88/43/12 72/42/12 87/41/12
f 72/42/12 88/43/12 74/44/12
f 74/47/11 89/46/11 75/45/11
f 89/46/11 74/47/11 88/48/11
f 66/45/15 90/48/15 84/46/15
f 90/48/15 66/45/15 64/47/15
f 64/45/14 62/48/14 90/46/14
f 62/48/14 64/45/14 61/47/14
f 93/51/3 92/50/3 91/49/3
f 92/50/3 88/35/3 91/49/3
f 88/35/3 94/52/3 91/49/3
f 87/37/3 94/52/3 88/35/3
f 94/52/3 87/37/3 95/53/3
f 95/53/3 87/37/3 96/54/3
f 96/54/3 87/37/3 86/6/3
f 96/54/3 86/6/3 97/55/3
f 97/55/3 86/6/3 98/56/3
f 98/56/3 86/6/3 99/5/3
f 99/5/3 86/6/3 100/57/3
f 100/57/3 86/6/3 101/30/3
f 99/5/3 100/57/3 102/58/3
f 100/57/3 101/30/3 103/59/3
f 103/59/3 101/30/3 104/60/3
f 104/60/3 101/30/3 105/61/3
f 105/61/3 101/30/3 106/62/3
f 107/34/3 106/62/3 101/30/3
f 107/34/3 108/63/3 106/62/3
f 106/62/3 108/63/3 109/64/3
f 107/34/3 110/65/3 108/63/3
f 108/63/3 110/65/3 111/66/3
f 107/34/3 112/67/3 110/65/3
f 89/2/3 112/67/3 107/34/3
f 89/2/3 113/68/3 112/67/3
f 89/2/3 114/4/3 113/68/3
f 89/2/3 115/69/3 114/4/3
f 89/2/3 116/70/3 115/69/3
f 89/2/3 117/71/3 116/70/3
f 88/35/3 117/71/3 89/2/3
f 117/71/3 88/35/3 92/50/3
f 118/72/3 117/71/3 92/50/3
f 105/61/3 119/73/3 104/60/3
f 104/60/3 120/74/3 103/59/3
f 121/75/3 95/53/3 96/54/3
f 122/76/3 94/52/3 95/53/3
f 57/21/16 71/20/16 85/19/16
f 71/20/16 57/21/16 58/22/16
f 77/42/13 101/43/13 83/44/13
f 101/43/13 77/42/13 107/41/13
f 101/19/15 81/22/15 83/20/15
f 81/22/15 101/19/15 86/21/15
f 75/47/16 107/46/16 77/45/16
f 107/46/16 75/47/16 89/48/16
f 125/79/5 124/78/5 123/77/5
f 124/78/5 62/27/5 123/77/5
f 126/80/5 62/27/5 124/78/5
f 127/81/5 126/80/5 124/78/5
f 62/27/5 126/80/5 90/2/5
f 123/77/5 62/27/5 128/82/5
f 59/29/5 128/82/5 62/27/5
f 128/82/5 59/29/5 129/83/5
f 129/83/5 59/29/5 130/84/5
f 130/84/5 59/29/5 57/6/5
f 130/84/5 57/6/5 131/85/5
f 131/85/5 57/6/5 132/86/5
f 132/86/5 57/6/5 133/5/5
f 133/5/5 57/6/5 134/57/5
f 134/57/5 57/6/5 85/30/5
f 133/5/5 134/57/5 135/87/5
f 134/57/5 85/30/5 136/59/5
f 136/59/5 85/30/5 137/60/5
f 137/60/5 85/30/5 138/88/5
f 138/88/5 85/30/5 139/89/5
f 84/34/5 139/89/5 85/30/5
f 84/34/5 140/63/5 139/89/5
f 139/89/5 140/63/5 141/64/5
f 84/34/5 142/65/5 140/63/5
f 140/63/5 142/65/5 143/90/5
f 84/34/5 144/67/5 142/65/5
f 90/2/5 144/67/5 84/34/5
f 90/2/5 145/91/5 144/67/5
f 90/2/5 146/4/5 145/91/5
f 90/2/5 147/92/5 146/4/5
f 90/2/5 148/93/5 147/92/5
f 90/2/5 126/80/5 148/93/5
f 138/88/5 149/73/5 137/60/5
f 137/60/5 150/94/5 136/59/5
f 151/95/5 129/83/5 130/84/5
f 152/96/5 128/82/5 129/83/5

usemtl dark

f 155/7/3 154/33/3 153/28/3
f 154/33/3 155/7/3 156/9/3
f 156/9/3 155/7/3 157/31/3
f 156/9/3 157/31/3 158/32/3
f 68/99/12 157/98/12 67/97/12
f 157/98/12 68/99/12 158/100/12
f 154/98/13 63/99/13 153/100/13
f 63/99/13 154/98/13 69/97/13
f 82/103/11 159/102/11 79/101/11
f 159/102/11 82/103/11 160/104/11
f 68/101/14 156/104/14 158/102/14
f 156/104/14 68/101/14 70/105/14
f 155/108/11 67/107/11 157/106/11
f 67/107/11 155/108/11 65/109/11
f 163/7/5 162/40/5 161/36/5
f 162/40/5 163/7/5 160/9/5
f 160/9/5 163/7/5 164/38/5
f 160/9/5 164/38/5 159/39/5
f 80/103/16 160/102/16 82/101/16
f 160/102/16 80/103/16 162/104/16
f 164/106/14 76/110/14 78/107/14
f 76/110/14 164/106/14 163/108/14
f 163/106/15 73/110/15 76/107/15
f 73/110/15 163/106/15 161/108/15
f 73/113/13 162/112/13 80/111/13
f 162/112/13 73/113/13 161/114/13
f 108/117/13 149/116/13 109/115/13
f 149/116/13 108/117/13 137/118/13
f 164/112/12 79/113/12 159/114/12
f 79/113/12 164/112/12 78/111/12
f 70/101/15 154/104/15 156/102/15
f 154/104/15 70/101/15 69/105/15
f 153/108/16 65/107/16 155/106/16
f 65/107/16 153/108/16 63/109/16
f 139/121/17 119/120/17 105/119/17
f 119/120/17 139/121/17 141/122/17
f 91/125/18 152/124/18 93/123/18
f 152/124/18 91/125/18 128/126/18
f 140/129/15 120/128/15 104/127/15
f 120/128/15 140/129/15 143/130/15
f 130/133/19 118/132/19 151/131/19
f 118/132/19 130/133/19 117/134/19
f 98/132/20 148/133/20 97/134/20
f 148/133/20 98/132/20 147/131/20
f 111/130/16 137/127/16 108/129/16
f 137/127/16 111/130/16 150/128/16
f 116/133/21 132/136/21 115/135/21
f 132/136/21 116/133/21 131/134/21
f 127/139/14 95/138/14 121/137/14
f 95/138/14 127/139/14 124/140/14
f 145/139/15 99/138/15 102/137/15
f 99/138/15 145/139/15 146/140/15
f 128/141/12 94/115/12 123/116/12
f 94/115/12 128/141/12 91/142/12
f 114/143/16 135/137/16 113/139/16
f 135/137/16 114/143/16 133/144/16
f 142/130/15 100/137/15 103/128/15
f 100/137/15 142/130/15 144/139/15
f 109/122/18 138/119/18 106/121/18
f 138/119/18 109/122/18 149/120/18
f 112/139/16 136/128/16 110/130/16
f 136/128/16 112/139/16 134/137/16
f 120/147/21 142/146/21 103/145/21
f 142/146/21 120/147/21 143/148/21
f 148/130/14 96/137/14 97/128/14
f 96/137/14 148/130/14 126/139/14
f 146/129/14 98/128/14 99/127/14
f 98/128/14 146/129/14 147/130/14
f 119/142/13 140/150/13 104/149/13
f 140/150/13 119/142/13 141/141/13
f 106/115/13 139/141/13 105/142/13
f 139/141/13 106/115/13 138/116/13
f 92/143/11 151/137/11 118/139/11
f 151/137/11 92/143/11 129/144/11
f 117/139/11 131/128/11 116/130/11
f 131/128/11 117/139/11 130/137/11
f 110/146/20 150/147/20 111/148/20
f 150/147/20 110/146/20 136/145/20
f 115/130/11 133/127/11 114/129/11
f 133/127/11 115/130/11 132/128/11
f 127/136/22 96/133/22 126/134/22
f 96/133/22 127/136/22 121/135/22
f 134/146/22 113/147/22 135/148/22
f 113/147/22 134/146/22 112/145/22
f 125/116/12 95/117/12 124/118/12
f 95/117/12 125/116/12 122/115/12
f 125/123/17 94/126/17 122/124/17
f 94/126/17 125/123/17 123/125/17
f 129/150/12 93/142/12 152/141/12
f 93/142/12 129/150/12 92/149/12
f 145/147/19 100/146/19 144/145/19
f 100/146/19 145/147/19 102/148/19

